<svg width="30" height="13" viewBox="0 0 30 13" fill="none" xmlns="http://www.w3.org/2000/svg">
<path d="M5.47733 1.92906C5.29954 2.14823 5.07466 2.32453 4.81938 2.44485C4.56409 2.56518 4.28498 2.62643 4.00278 2.62407C3.97002 2.06447 4.15897 1.51448 4.52873 1.09316C4.90191 0.663088 5.42687 0.393879 5.99389 0.341797C6.01634 0.627334 5.98226 0.914494 5.89363 1.18685C5.80499 1.45921 5.66353 1.71142 5.47733 1.92906ZM5.99389 2.73677C5.17678 2.68981 4.48177 3.19698 4.11548 3.19698C3.74919 3.19698 3.17627 2.76495 2.48126 2.77434C2.05864 2.78281 1.64558 2.90169 1.28311 3.11917C0.920637 3.33665 0.621364 3.64517 0.415009 4.01409C-0.458453 5.52621 0.189599 7.77092 1.04428 9.00128C1.45753 9.60237 1.98348 10.2786 2.61275 10.2504C3.24202 10.2222 3.47682 9.84656 4.22819 9.84656C4.97955 9.84656 5.16739 10.2504 5.85301 10.241C6.53863 10.2316 6.96128 9.63054 7.38392 9.02006C7.67574 8.5887 7.90351 8.11733 8.06015 7.62064C7.66784 7.45073 7.33361 7.17009 7.09839 6.8131C6.86318 6.45611 6.73719 6.03826 6.73587 5.61074C6.74262 5.233 6.8442 4.86301 7.03129 4.53478C7.21838 4.20655 7.48497 3.93062 7.80656 3.73233C7.59947 3.44076 7.32852 3.20035 7.01437 3.02944C6.70022 2.85853 6.35119 2.76164 5.99389 2.74616M10.6899 1.0462V10.2035H12.1551V7.04773H14.118C14.5208 7.07032 14.9238 7.00843 15.3013 6.86602C15.6787 6.72361 16.0222 6.50383 16.3096 6.2208C16.5971 5.93777 16.8222 5.59774 16.9704 5.22256C17.1187 4.84738 17.1868 4.44534 17.1704 4.04227C17.1892 3.64261 17.1243 3.24345 16.9799 2.87032C16.8355 2.49719 16.6147 2.15833 16.3318 1.87542C16.0489 1.59251 15.7101 1.37179 15.3369 1.22738C14.9638 1.08297 14.5646 1.01806 14.165 1.03681L10.6899 1.0462ZM12.1551 2.23899H13.7517C14.0028 2.20333 14.2587 2.22429 14.5006 2.30034C14.7425 2.37639 14.9643 2.50559 15.1498 2.67849C15.3354 2.85139 15.4798 3.0636 15.5727 3.29958C15.6655 3.53555 15.7044 3.78932 15.6865 4.04227C15.7041 4.29677 15.6649 4.55201 15.5716 4.78945C15.4783 5.0269 15.3333 5.2406 15.1472 5.41505C14.961 5.58951 14.7384 5.72033 14.4954 5.79804C14.2524 5.87575 13.9952 5.89839 13.7423 5.86433H12.1551V2.23899ZM19.7251 10.2035C20.145 10.2136 20.56 10.1109 20.9267 9.90604C21.2935 9.7012 21.5985 9.40173 21.8101 9.03885V10.2035H23.125V5.62953C23.125 4.30525 22.0731 3.45996 20.4483 3.45996C18.8234 3.45996 17.8561 4.32403 17.7903 5.50743H19.0676C19.1407 5.21528 19.3168 4.95936 19.5636 4.78678C19.8104 4.6142 20.1112 4.53659 20.4107 4.56822C21.2748 4.56822 21.7632 4.98147 21.7632 5.72345V6.22123L19.9881 6.33393C18.3445 6.42785 17.4522 7.10408 17.4522 8.27809C17.4616 8.55853 17.5296 8.83389 17.6518 9.08647C17.774 9.33904 17.9478 9.56323 18.1619 9.74459C18.376 9.92596 18.6257 10.0605 18.8949 10.1395C19.1641 10.2185 19.4469 10.2403 19.7251 10.2035ZM20.1008 9.12337C19.3494 9.12337 18.8704 8.75708 18.8704 8.18417C18.8704 7.61125 19.3306 7.24496 20.2135 7.24496L21.7913 7.14165V7.65821C21.7872 7.8706 21.7391 8.07983 21.6502 8.27275C21.5613 8.46568 21.4334 8.63812 21.2747 8.77925C21.1159 8.92038 20.9296 9.02715 20.7276 9.09283C20.5256 9.15852 20.3122 9.18171 20.1008 9.16094V9.12337ZM24.9095 12.6172C26.2901 12.6172 26.9382 12.0913 27.5111 10.4946L30 3.54449H28.563L26.8912 8.94492L25.2194 3.54449H23.7073L26.1117 10.2035L25.9802 10.6073C25.9321 10.8834 25.7838 11.132 25.5636 11.3053C25.3435 11.4787 25.067 11.5646 24.7874 11.5465H24.3648V12.6454C24.546 12.6584 24.7279 12.6615 24.9095 12.6548V12.6172Z" fill="#1E1E1E"/>
</svg>
