<svg width="18" height="18" viewBox="0 0 18 18" fill="none" xmlns="http://www.w3.org/2000/svg">
<path d="M12.75 4.5H5.24995M12.75 4.5H13.7315C15.2958 4.5 16.0779 4.5 16.5251 4.99962C16.9723 5.49924 16.8859 6.27659 16.7131 7.8313L16.4913 9.82823C16.1387 13.0017 15.9623 14.5885 14.8945 15.5442C13.8267 16.5 12.2178 16.5 8.99996 16.5C5.78216 16.5 4.17326 16.5 3.10541 15.5442C2.03756 14.5885 1.86126 13.0017 1.50865 9.82824L1.28677 7.8313C1.11402 6.27659 1.02765 5.49924 1.47483 4.99962C1.92201 4.5 2.70414 4.5 4.26842 4.5H5.24995M12.75 4.5C12.75 2.42893 11.071 0.75 8.99995 0.75C6.98003 0.75 5.33311 2.34704 5.25301 4.34731C5.25098 4.39795 5.24995 4.44886 5.24995 4.5" stroke="#D9DDDC" stroke-width="1.5"/>
</svg>
