<svg width="16" height="16" viewBox="0 0 16 16" fill="none" xmlns="http://www.w3.org/2000/svg">
<path d="M8 0.5C3.86 0.5 0.5 3.86 0.5 8C0.5 12.14 3.86 15.5 8 15.5C12.14 15.5 15.5 12.14 15.5 8C15.5 3.86 12.14 0.5 8 0.5ZM8 14C4.6925 14 2 11.3075 2 8C2 4.6925 4.6925 2 8 2C11.3075 2 14 4.6925 14 8C14 11.3075 11.3075 14 8 14ZM3.875 12.125L9.5075 9.5075L12.125 3.875L6.4925 6.4925L3.875 12.125ZM8 7.175C8.4575 7.175 8.825 7.5425 8.825 8C8.825 8.4575 8.4575 8.825 8 8.825C7.5425 8.825 7.175 8.4575 7.175 8C7.175 7.5425 7.5425 7.175 8 7.175Z" fill="#D9DDDC"/>
</svg>
