<svg width="20" height="21" viewBox="0 0 20 21" fill="none" xmlns="http://www.w3.org/2000/svg">
<path d="M19.3211 10.2469C19.2937 10.1852 18.632 8.71719 17.1609 7.24609C15.2008 5.28594 12.725 4.25 9.99999 4.25C7.27499 4.25 4.79921 5.28594 2.83905 7.24609C1.36796 8.71719 0.703118 10.1875 0.678899 10.2469C0.643362 10.3268 0.625 10.4133 0.625 10.5008C0.625 10.5883 0.643362 10.6748 0.678899 10.7547C0.706243 10.8164 1.36796 12.2836 2.83905 13.7547C4.79921 15.7141 7.27499 16.75 9.99999 16.75C12.725 16.75 15.2008 15.7141 17.1609 13.7547C18.632 12.2836 19.2937 10.8164 19.3211 10.7547C19.3566 10.6748 19.375 10.5883 19.375 10.5008C19.375 10.4133 19.3566 10.3268 19.3211 10.2469ZM9.99999 13.625C9.38193 13.625 8.77774 13.4417 8.26383 13.0983C7.74993 12.755 7.34939 12.2669 7.11287 11.6959C6.87634 11.1249 6.81446 10.4965 6.93504 9.89034C7.05562 9.28415 7.35324 8.72733 7.79028 8.29029C8.22732 7.85325 8.78414 7.55562 9.39033 7.43505C9.99652 7.31447 10.6249 7.37635 11.1959 7.61288C11.7669 7.8494 12.255 8.24994 12.5983 8.76384C12.9417 9.27775 13.125 9.88193 13.125 10.5C13.125 11.3288 12.7958 12.1237 12.2097 12.7097C11.6236 13.2958 10.8288 13.625 9.99999 13.625Z" fill="#D9DDDC"/>
</svg>
