<svg width="18" height="19" viewBox="0 0 18 19" fill="none" xmlns="http://www.w3.org/2000/svg">
<path d="M9 3.5C8.58579 3.5 8.25 3.83579 8.25 4.25C8.25 4.66421 8.58579 5 9 5V3.5ZM15 5C15.4142 5 15.75 4.66421 15.75 4.25C15.75 3.83579 15.4142 3.5 15 3.5V5ZM9 14C8.58579 14 8.25 14.3358 8.25 14.75C8.25 15.1642 8.58579 15.5 9 15.5V14ZM15 15.5C15.4142 15.5 15.75 15.1642 15.75 14.75C15.75 14.3358 15.4142 14 15 14V15.5ZM9 10.25C9.41421 10.25 9.75 9.91421 9.75 9.5C9.75 9.08579 9.41421 8.75 9 8.75V10.25ZM3 8.75C2.58579 8.75 2.25 9.08579 2.25 9.5C2.25 9.91421 2.58579 10.25 3 10.25L3 8.75ZM9 5L15 5V3.5L9 3.5V5ZM9 15.5H15V14H9V15.5ZM9 8.75L3 8.75L3 10.25L9 10.25V8.75ZM2.25 4.25C2.25 5.49264 3.25736 6.5 4.5 6.5V5C4.08579 5 3.75 4.66421 3.75 4.25H2.25ZM4.5 6.5C5.74264 6.5 6.75 5.49264 6.75 4.25H5.25C5.25 4.66421 4.91421 5 4.5 5V6.5ZM6.75 4.25C6.75 3.00736 5.74264 2 4.5 2V3.5C4.91421 3.5 5.25 3.83579 5.25 4.25H6.75ZM4.5 2C3.25736 2 2.25 3.00736 2.25 4.25H3.75C3.75 3.83579 4.08579 3.5 4.5 3.5V2ZM2.25 14.75C2.25 15.9926 3.25736 17 4.5 17V15.5C4.08579 15.5 3.75 15.1642 3.75 14.75H2.25ZM4.5 17C5.74264 17 6.75 15.9926 6.75 14.75H5.25C5.25 15.1642 4.91421 15.5 4.5 15.5V17ZM6.75 14.75C6.75 13.5074 5.74264 12.5 4.5 12.5V14C4.91421 14 5.25 14.3358 5.25 14.75H6.75ZM4.5 12.5C3.25736 12.5 2.25 13.5074 2.25 14.75H3.75C3.75 14.3358 4.08579 14 4.5 14V12.5ZM15.75 9.5C15.75 8.25736 14.7426 7.25 13.5 7.25V8.75C13.9142 8.75 14.25 9.08579 14.25 9.5H15.75ZM13.5 7.25C12.2574 7.25 11.25 8.25736 11.25 9.5H12.75C12.75 9.08579 13.0858 8.75 13.5 8.75V7.25ZM11.25 9.5C11.25 10.7426 12.2574 11.75 13.5 11.75V10.25C13.0858 10.25 12.75 9.91421 12.75 9.5H11.25ZM13.5 11.75C14.7426 11.75 15.75 10.7426 15.75 9.5H14.25C14.25 9.91421 13.9142 10.25 13.5 10.25V11.75Z" fill="#787878"/>
</svg>
