<svg width="16" height="16" viewBox="0 0 16 16" fill="none" xmlns="http://www.w3.org/2000/svg">
<path fill-rule="evenodd" clip-rule="evenodd" d="M3.72025 2.72417C1.72014 4.17734 0.720082 4.90392 0.327303 5.97718C0.295794 6.06328 0.267454 6.1505 0.242338 6.23868C-0.0707458 7.33784 0.311242 8.51347 1.07522 10.8647C1.83919 13.216 2.22118 14.3917 3.12054 15.0969C3.19268 15.1534 3.26688 15.2073 3.34298 15.2585C4.29159 15.8959 5.52773 15.8959 8 15.8959C10.4723 15.8959 11.7084 15.8959 12.657 15.2585C12.7331 15.2073 12.8073 15.1534 12.8795 15.0969C13.7788 14.3917 14.1608 13.216 14.9248 10.8647C15.6888 8.51347 16.0708 7.33784 15.7577 6.23868C15.7326 6.1505 15.7042 6.06328 15.6727 5.97718C15.2799 4.90392 14.2799 4.17734 12.2798 2.72418C10.2797 1.27101 9.27959 0.544419 8.13748 0.502521C8.04586 0.49916 7.95415 0.49916 7.86253 0.502521C6.72042 0.544419 5.72036 1.271 3.72025 2.72417ZM6.5 11.8022C6.18934 11.8022 5.9375 12.0541 5.9375 12.3647C5.9375 12.6754 6.18934 12.9272 6.5 12.9272H9.5C9.81066 12.9272 10.0625 12.6754 10.0625 12.3647C10.0625 12.0541 9.81066 11.8022 9.5 11.8022H6.5Z" fill="white"/>
</svg>
