<svg width="24" height="24" viewBox="0 0 24 24" fill="none" xmlns="http://www.w3.org/2000/svg">
<path d="M18.126 14.2689C16.4579 14.2689 15.1008 15.626 15.1008 17.2941C15.1008 18.9623 16.4579 20.3193 18.126 20.3193C19.7944 20.3193 21.1512 18.9623 21.1512 17.2941C21.1512 15.626 19.7941 14.2689 18.126 14.2689ZM18.126 18.8067C17.2918 18.8067 16.6134 18.1283 16.6134 17.2941C16.6134 16.4599 17.2918 15.7815 18.126 15.7815C18.9602 15.7815 19.6386 16.4599 19.6386 17.2941C19.6386 18.1284 18.9602 18.8067 18.126 18.8067ZM7.78987 14.2689C6.12173 14.2689 4.76465 15.626 4.76465 17.2941C4.76465 18.9623 6.12173 20.3193 7.78987 20.3193C9.45801 20.3193 10.8151 18.9623 10.8151 17.2941C10.8151 15.626 9.45801 14.2689 7.78987 14.2689ZM7.78987 18.8067C6.95568 18.8067 6.27726 18.1283 6.27726 17.2941C6.27726 16.4599 6.95568 15.7815 7.78987 15.7815C8.62382 15.7815 9.30248 16.4599 9.30248 17.2941C9.30248 18.1284 8.62405 18.8067 7.78987 18.8067ZM20.1632 5.60978C20.1002 5.48457 20.0036 5.37932 19.8843 5.30578C19.7649 5.23224 19.6275 5.1933 19.4873 5.1933H15.5041V6.70591H19.0209L21.0803 10.802L22.4321 10.1223L20.1632 5.60978Z" fill="black"/>
<path d="M10.1345 16.563H15.8572V18.0756H10.1345V16.563ZM5.52098 16.563H2.89917C2.48142 16.563 2.14289 16.9016 2.14289 17.3193C2.14289 17.7371 2.48147 18.0756 2.89917 18.0756H5.52103C5.93878 18.0756 6.27731 17.737 6.27731 17.3193C6.27731 16.9016 5.93873 16.563 5.52098 16.563ZM23.8412 11.9395L22.3536 10.0235C22.2829 9.93242 22.1924 9.8587 22.0889 9.80801C21.9853 9.75732 21.8716 9.73099 21.7563 9.73105H16.2605V4.43695C16.2605 4.0192 15.9219 3.68066 15.5042 3.68066H2.89917C2.48142 3.68066 2.14289 4.01924 2.14289 4.43695C2.14289 4.85465 2.48147 5.19323 2.89917 5.19323H14.7479V10.4873C14.7479 10.9051 15.0865 11.2436 15.5042 11.2436H21.386L22.4874 12.6624V16.5629H20.3949C19.9772 16.5629 19.6387 16.9015 19.6387 17.3192C19.6387 17.737 19.9772 18.0755 20.3949 18.0755H23.2437C23.6614 18.0755 24 17.7369 24 17.3192V12.4034C24 12.2354 23.944 12.0721 23.8412 11.9395ZM5.47059 12.7311H1.99158C1.57383 12.7311 1.2353 13.0697 1.2353 13.4874C1.2353 13.9051 1.57387 14.2437 1.99158 14.2437H5.47055C5.8883 14.2437 6.22683 13.9051 6.22683 13.4874C6.22688 13.0697 5.8883 12.7311 5.47059 12.7311ZM7.21008 9.75627H0.756281C0.338578 9.75627 0 10.0949 0 10.5126C0 10.9304 0.338578 11.2689 0.756281 11.2689H7.21008C7.62783 11.2689 7.96636 10.9303 7.96636 10.5126C7.96636 10.0949 7.62783 9.75627 7.21008 9.75627Z" fill="black"/>
<path d="M8.44543 6.78149H1.99163C1.57388 6.78149 1.23535 7.12007 1.23535 7.53778C1.23535 7.95553 1.57393 8.29406 1.99163 8.29406H8.44543C8.86318 8.29406 9.20171 7.95548 9.20171 7.53778C9.20176 7.12007 8.86318 6.78149 8.44543 6.78149Z" fill="black"/>
</svg>
