<svg width="24" height="24" viewBox="0 0 24 24" fill="none" xmlns="http://www.w3.org/2000/svg">
<path d="M4.69873 15.9102C4.93173 15.9102 5.12061 15.7213 5.12061 15.4883C5.12061 15.2553 4.93173 15.0664 4.69873 15.0664C4.46574 15.0664 4.27686 15.2553 4.27686 15.4883C4.27686 15.7213 4.46574 15.9102 4.69873 15.9102Z" fill="black"/>
<path d="M3.38623 15.9102C3.61923 15.9102 3.80811 15.7213 3.80811 15.4883C3.80811 15.2553 3.61923 15.0664 3.38623 15.0664C3.15324 15.0664 2.96436 15.2553 2.96436 15.4883C2.96436 15.7213 3.15324 15.9102 3.38623 15.9102Z" fill="black"/>
<path d="M5.45778 20.3174C5.75915 20.3174 6.00345 20.0731 6.00345 19.7717C6.00345 19.4704 5.75915 19.2261 5.45778 19.2261C5.15641 19.2261 4.91211 19.4704 4.91211 19.7717C4.91211 20.0731 5.15641 20.3174 5.45778 20.3174Z" fill="black"/>
<path d="M18.4563 20.3174C18.7577 20.3174 19.002 20.0731 19.002 19.7717C19.002 19.4704 18.7577 19.2261 18.4563 19.2261C18.1549 19.2261 17.9106 19.4704 17.9106 19.7717C17.9106 20.0731 18.1549 20.3174 18.4563 20.3174Z" fill="black"/>
<path d="M22.4505 15.3021L19.9685 10.9612C19.8153 10.66 19.5 10.4661 19.1615 10.4661H15.0539L15.0267 6.94297C15.0267 6.38889 14.6046 5.93811 14.0858 5.93811H13.4052C13.1981 5.93811 13.0302 6.106 13.0302 6.31311C13.0302 6.52023 13.1981 6.68811 13.4052 6.68811H14.0858C14.1893 6.68811 14.2767 6.80482 14.2767 6.94585C14.3196 12.5067 14.3125 10.6627 14.3125 15.1171L6.30027 15.207C6.09318 15.2094 5.92717 15.3791 5.92951 15.5862C5.93182 15.7919 6.09924 15.957 6.30439 15.957C6.30581 15.957 6.30727 15.957 6.30869 15.957L14.3125 15.8671V19.3968H7.75388C7.57398 18.2916 6.61305 17.445 5.45771 17.445C4.30237 17.445 3.34144 18.2916 3.16154 19.3968H2.58856C2.40189 19.3968 2.25 19.2087 2.25 18.9776V6.96407C2.25 6.81448 2.34608 6.68811 2.45982 6.68811H3.23362C3.44073 6.68811 3.60862 6.52023 3.60862 6.31311C3.60862 6.106 3.44073 5.93811 3.23362 5.93811H2.45982C1.93057 5.93811 1.5 6.39835 1.5 6.96407V18.9776C1.5 19.6223 1.98832 20.1468 2.58856 20.1468H3.16154C3.34144 21.2521 4.30237 22.0986 5.45771 22.0986C6.61305 22.0986 7.57398 21.2521 7.75388 20.1468L16.0954 20.1403C16.2726 21.2488 17.2351 22.0986 18.3928 22.0986C19.5481 22.0986 20.509 21.2521 20.6889 20.1468H21.6511C22.1192 20.1468 22.5 19.766 22.5 19.2979V15.4883C22.5 15.423 22.4829 15.3588 22.4505 15.3021ZM21.4786 15.1133H17.1926V12.7119H20.1055L21.4786 15.1133ZM5.45771 21.3486C4.58826 21.3486 3.8809 20.6413 3.8809 19.7718C3.8809 18.9024 4.58826 18.195 5.45771 18.195C6.32716 18.195 7.03452 18.9024 7.03452 19.7718C7.03452 20.6413 6.32716 21.3486 5.45771 21.3486ZM18.3928 21.3486C17.5233 21.3486 16.816 20.6413 16.816 19.7718C16.816 18.9024 17.5233 18.195 18.3928 18.195C19.2622 18.195 19.9696 18.9024 19.9696 19.7718C19.9696 20.6413 19.2622 21.3486 18.3928 21.3486ZM21.6511 19.3968H20.6889C20.509 18.2916 19.5481 17.445 18.3928 17.445C17.2351 17.445 16.2726 18.2949 16.0954 19.4034C16.0445 19.394 16.092 19.3968 15.1228 19.3968L15.0625 11.2161H19.1615C19.2203 11.2161 19.275 11.2503 19.3009 11.3031C19.3044 11.3104 19.3082 11.3175 19.3122 11.3245L19.6767 11.9619H17.1291C16.7505 11.9619 16.4426 12.2573 16.4426 12.6205V15.1848C16.4426 15.5589 16.7603 15.8633 17.1509 15.8633H21.75V19.2979C21.75 19.3524 21.7056 19.3968 21.6511 19.3968Z" fill="black"/>
<path d="M5.17261 12.6787H11.3541C11.9486 12.6787 12.4322 12.195 12.4322 11.6006V2.97949C12.4322 2.38502 11.9486 1.90137 11.3541 1.90137H5.17261C4.57813 1.90137 4.09448 2.38502 4.09448 2.97949V11.6006C4.09448 12.195 4.57813 12.6787 5.17261 12.6787ZM11.6822 2.97949V11.6006C11.6822 11.7815 11.535 11.9287 11.3541 11.9287H8.63836V2.65137H11.3541C11.535 2.65137 11.6822 2.79856 11.6822 2.97949ZM4.84448 2.97949C4.84448 2.79856 4.99168 2.65137 5.17261 2.65137H7.88836V11.9287H5.17261C4.99168 11.9287 4.84448 11.7815 4.84448 11.6006V2.97949Z" fill="black"/>
<path d="M10.1371 5.48962C10.5408 5.48962 10.8693 5.16113 10.8693 4.75739C10.8693 4.35364 10.5408 4.02515 10.1371 4.02515C9.73331 4.02515 9.40482 4.35364 9.40482 4.75739C9.40482 5.16113 9.73331 5.48962 10.1371 5.48962ZM10.1371 8.02232C10.5408 8.02232 10.8693 7.69382 10.8693 7.29008C10.8693 6.88633 10.5408 6.55784 10.1371 6.55784C9.73331 6.55784 9.40482 6.88633 9.40482 7.29008C9.40482 7.69382 9.73331 8.02232 10.1371 8.02232ZM10.1371 9.09053C9.73331 9.09053 9.40482 9.41902 9.40482 9.82277C9.40482 10.2265 9.73331 10.555 10.1371 10.555C10.5408 10.555 10.8693 10.2265 10.8693 9.82277C10.8693 9.41902 10.5408 9.09053 10.1371 9.09053ZM6.3045 5.48962C6.70827 5.48962 7.03677 5.16113 7.03677 4.75739C7.03677 4.35364 6.70827 4.02515 6.3045 4.02515C5.90076 4.02515 5.57227 4.35364 5.57227 4.75739C5.57227 5.16113 5.90076 5.48962 6.3045 5.48962ZM6.3045 8.02232C6.70827 8.02232 7.03677 7.69382 7.03677 7.29008C7.03677 6.88633 6.70827 6.55784 6.3045 6.55784C5.90076 6.55784 5.57227 6.88633 5.57227 7.29008C5.57227 7.69382 5.90076 8.02232 6.3045 8.02232ZM6.3045 10.555C6.70827 10.555 7.03677 10.2265 7.03677 9.82277C7.03677 9.41902 6.70827 9.09053 6.3045 9.09053C5.90076 9.09053 5.57227 9.41902 5.57227 9.82277C5.57227 10.2265 5.90076 10.555 6.3045 10.555Z" fill="black"/>
</svg>
