<svg width="26" height="17" viewBox="0 0 26 17" fill="none" xmlns="http://www.w3.org/2000/svg">
<rect width="26" height="17" rx="3" fill="white"/>
<path fill-rule="evenodd" clip-rule="evenodd" d="M10.5659 12.8584H15.4333V4.18011H10.5659V12.8584Z" fill="#FF5F00"/>
<path fill-rule="evenodd" clip-rule="evenodd" d="M10.8754 8.5193C10.8754 6.75868 11.7062 5.19062 13 4.18015C12.0537 3.44104 10.8599 3.00012 9.56225 3.00012C6.49024 3.00012 4 5.47118 4 8.5193C4 11.5674 6.49024 14.0385 9.56225 14.0385C10.8599 14.0385 12.0537 13.5976 13 12.8584C11.7062 11.8478 10.8754 10.2799 10.8754 8.5193Z" fill="#EB001B"/>
<path fill-rule="evenodd" clip-rule="evenodd" d="M21.8263 11.9392V11.7251H21.7699L21.7052 11.8724L21.6403 11.7251H21.5839V11.9392H21.6236V11.7776L21.6845 11.917H21.7257L21.7866 11.7773V11.9392H21.8263ZM21.4692 11.9392V11.7615H21.5415V11.7254H21.3577V11.7615H21.4298V11.9392H21.4692ZM22 8.51918C22 11.5673 19.5096 14.0384 16.4378 14.0384C15.1401 14.0384 13.9461 13.5974 13 12.8583C14.2938 11.8479 15.1246 10.2798 15.1246 8.51918C15.1246 6.75871 14.2938 5.19065 13 4.18003C13.9461 3.44092 15.1401 3 16.4378 3C19.5096 3 22 5.47106 22 8.51918Z" fill="#F79E1B"/>
</svg>
