<svg width="18" height="19" viewBox="0 0 18 19" fill="none" xmlns="http://www.w3.org/2000/svg">
<path d="M13.5 10.25C13.9142 10.25 14.25 9.91421 14.25 9.5C14.25 9.08579 13.9142 8.75 13.5 8.75V10.25ZM4.5 8.75C4.08579 8.75 3.75 9.08579 3.75 9.5C3.75 9.91421 4.08579 10.25 4.5 10.25V8.75ZM3 11.75C3 11.3358 2.66421 11 2.25 11C1.83579 11 1.5 11.3358 1.5 11.75H3ZM6.75 17C7.16421 17 7.5 16.6642 7.5 16.25C7.5 15.8358 7.16421 15.5 6.75 15.5V17ZM6.75 3.5C7.16421 3.5 7.5 3.16421 7.5 2.75C7.5 2.33579 7.16421 2 6.75 2V3.5ZM1.5 7.25C1.5 7.66421 1.83579 8 2.25 8C2.66421 8 3 7.66421 3 7.25H1.5ZM15 7.25C15 7.66421 15.3358 8 15.75 8C16.1642 8 16.5 7.66421 16.5 7.25H15ZM11.25 2C10.8358 2 10.5 2.33579 10.5 2.75C10.5 3.16421 10.8358 3.5 11.25 3.5V2ZM12 16.25V15.5V16.25ZM11.25 15.5C10.8358 15.5 10.5 15.8358 10.5 16.25C10.5 16.6642 10.8358 17 11.25 17V15.5ZM16.5 11.75C16.5 11.3358 16.1642 11 15.75 11C15.3358 11 15 11.3358 15 11.75H16.5ZM15.75 12.5H16.5H15.75ZM13.5 8.75H4.5V10.25H13.5V8.75ZM3 12.5V11.75H1.5V12.5H3ZM6.75 15.5H6V17H6.75V15.5ZM1.5 12.5C1.5 14.9853 3.51472 17 6 17V15.5C4.34315 15.5 3 14.1569 3 12.5H1.5ZM6 3.5H6.75V2H6V3.5ZM3 7.25V6.5H1.5V7.25H3ZM6 2C3.51472 2 1.5 4.01472 1.5 6.5H3C3 4.84315 4.34315 3.5 6 3.5V2ZM15 6.5V7.25H16.5V6.5H15ZM11.25 3.5H12V2H11.25V3.5ZM16.5 6.5C16.5 4.01472 14.4853 2 12 2V3.5C13.6569 3.5 15 4.84315 15 6.5H16.5ZM12 15.5H11.25V17H12V15.5ZM15 11.75V12.5H16.5V11.75H15ZM12 17C14.4853 17 16.5 14.9853 16.5 12.5H15C15 14.1569 13.6569 15.5 12 15.5V17Z" fill="#787878"/>
</svg>
