<svg width="18" height="18" viewBox="0 0 18 18" fill="none" xmlns="http://www.w3.org/2000/svg">
<path d="M14.7804 13.4697C14.4875 13.1768 14.0126 13.1768 13.7197 13.4697C13.4268 13.7626 13.4268 14.2375 13.7197 14.5304L14.7804 13.4697ZM16.7196 17.5304C17.0125 17.8233 17.4874 17.8233 17.7803 17.5304C18.0732 17.2375 18.0732 16.7626 17.7803 16.4697L16.7196 17.5304ZM7.03067 4.28693C7.43978 4.22213 7.71891 3.83795 7.65411 3.42884C7.58931 3.01973 7.20513 2.7406 6.79602 2.8054L7.03067 4.28693ZM3.05538 6.54604C2.99058 6.95516 3.2697 7.33934 3.67882 7.40413C4.08793 7.46893 4.47211 7.18981 4.53691 6.78069L3.05538 6.54604ZM13.7197 14.5304L16.7196 17.5304L17.7803 16.4697L14.7804 13.4697L13.7197 14.5304ZM8.25 14C4.93629 14 2.25 11.3137 2.25 8H0.75C0.75 12.1421 4.10786 15.5 8.25 15.5V14ZM14.25 8C14.25 11.3137 11.5637 14 8.25 14V15.5C12.3921 15.5 15.75 12.1421 15.75 8H14.25ZM8.25 2C11.5637 2 14.25 4.68629 14.25 8H15.75C15.75 3.85786 12.3921 0.5 8.25 0.5V2ZM8.25 0.5C4.10786 0.5 0.75 3.85786 0.75 8H2.25C2.25 4.68629 4.93629 2 8.25 2V0.5ZM6.79602 2.8054C4.8705 3.11037 3.36035 4.62053 3.05538 6.54604L4.53691 6.78069C4.74022 5.49702 5.74699 4.49025 7.03067 4.28693L6.79602 2.8054Z" fill="#787878"/>
</svg>
