<svg width="24" height="24" viewBox="0 0 24 24" fill="none" xmlns="http://www.w3.org/2000/svg">
<path fill-rule="evenodd" clip-rule="evenodd" d="M6 15C5.80109 15 5.61032 15.079 5.46967 15.2197C5.32902 15.3603 5.25 15.5511 5.25 15.75C5.25 15.9489 5.32902 16.1397 5.46967 16.2803C5.61032 16.421 5.80109 16.5 6 16.5H12C12.1989 16.5 12.3897 16.421 12.5303 16.2803C12.671 16.1397 12.75 15.9489 12.75 15.75C12.75 15.5511 12.671 15.3603 12.5303 15.2197C12.3897 15.079 12.1989 15 12 15H6ZM7.5 12.75C7.30109 12.75 7.11032 12.829 6.96967 12.9697C6.82902 13.1103 6.75 13.3011 6.75 13.5C6.75 13.6989 6.82902 13.8897 6.96967 14.0303C7.11032 14.171 7.30109 14.25 7.5 14.25H12C12.1989 14.25 12.3897 14.171 12.5303 14.0303C12.671 13.8897 12.75 13.6989 12.75 13.5C12.75 13.3011 12.671 13.1103 12.5303 12.9697C12.3897 12.829 12.1989 12.75 12 12.75H7.5ZM9.75 10.5C9.55109 10.5 9.36032 10.579 9.21967 10.7197C9.07902 10.8603 9 11.0511 9 11.25C9 11.4489 9.07902 11.6397 9.21967 11.7803C9.36032 11.921 9.55109 12 9.75 12H12C12.1989 12 12.3897 11.921 12.5303 11.7803C12.671 11.6397 12.75 11.4489 12.75 11.25C12.75 11.0511 12.671 10.8603 12.5303 10.7197C12.3897 10.579 12.1989 10.5 12 10.5H9.75ZM5.25 5.26025C5.05109 5.26025 4.86032 5.33926 4.71967 5.47991C4.57902 5.62056 4.5 5.81134 4.5 6.01025V7.51025C4.50002 7.70916 4.57904 7.8999 4.71969 8.04055C4.86034 8.1812 5.05109 8.26023 5.25 8.26025H6.75C6.94891 8.26025 7.13968 8.18123 7.28033 8.04057C7.42098 7.89992 7.5 7.70917 7.5 7.51025C7.5 7.31134 7.42098 7.12056 7.28033 6.97991C7.13968 6.83926 6.94891 6.76025 6.75 6.76025H6V6.01025C6 5.81134 5.92098 5.62056 5.78033 5.47991C5.63968 5.33926 5.44891 5.26025 5.25 5.26025Z" fill="black"/>
<path fill-rule="evenodd" clip-rule="evenodd" d="M5.25 3.01025C2.77361 3.01025 0.75 5.03387 0.75 7.51025C0.75 8.83626 1.33076 10.0322 2.25 10.8574V19.5C2.25002 19.6989 2.32904 19.8897 2.46969 20.0303C2.61034 20.171 2.80109 20.25 3 20.25H4.63037C4.94214 21.1203 5.77848 21.75 6.75 21.75C7.72152 21.75 8.55786 21.1203 8.86963 20.25H14.25H15.8804C16.1921 21.1203 17.0285 21.75 18 21.75C18.9715 21.75 19.8079 21.1203 20.1196 20.25H22.5C22.6989 20.25 22.8897 20.171 23.0303 20.0303C23.171 19.8897 23.25 19.6989 23.25 19.5V14.25C23.2501 14.0797 23.1923 13.9143 23.0859 13.7812L20.0859 10.0312C20.0156 9.94343 19.9264 9.87255 19.825 9.82386C19.7236 9.77518 19.6125 9.74994 19.5 9.75H15V8.25C15 8.05109 14.921 7.86033 14.7803 7.71968C14.6397 7.57903 14.4489 7.50002 14.25 7.5H9.75C9.74438 5.02829 7.72297 3.01025 5.25 3.01025ZM5.25 4.51025C6.91573 4.51025 8.25 5.84452 8.25 7.51025C8.25 9.17599 6.91573 10.5103 5.25 10.5103C4.62681 10.5103 4.04918 10.3244 3.57129 10.0034C3.50014 9.91858 3.4111 9.85054 3.31055 9.8042C2.66089 9.25535 2.25 8.43401 2.25 7.51025C2.25 5.84452 3.58427 4.51025 5.25 4.51025ZM9.49365 9H13.5V18.75H8.86963C8.55786 17.8797 7.72152 17.25 6.75 17.25C5.77848 17.25 4.94214 17.8797 4.63037 18.75H3.75V11.751C4.2197 11.9182 4.72451 12.0103 5.25 12.0103C7.20464 12.0103 8.87564 10.749 9.49365 9ZM15 11.25H16.5V15C16.5 15.1989 16.579 15.3897 16.7197 15.5303C16.8603 15.671 17.0511 15.75 17.25 15.75H21.75V18.75H20.1196C19.8079 17.8797 18.9715 17.25 18 17.25C17.0285 17.25 16.1921 17.8797 15.8804 18.75H15V11.25ZM18 11.25H19.1396L21.5391 14.25H18V11.25ZM6.75 18.75C7.1731 18.75 7.5 19.0769 7.5 19.5C7.5 19.9231 7.1731 20.25 6.75 20.25C6.3269 20.25 6 19.9231 6 19.5C6 19.0769 6.3269 18.75 6.75 18.75ZM18 18.75C18.4231 18.75 18.75 19.0769 18.75 19.5C18.75 19.9231 18.4231 20.25 18 20.25C17.5769 20.25 17.25 19.9231 17.25 19.5C17.25 19.0769 17.5769 18.75 18 18.75Z" fill="black"/>
</svg>
