<svg width="200" height="144" viewBox="0 0 200 144" fill="none" xmlns="http://www.w3.org/2000/svg">
<path fill-rule="evenodd" clip-rule="evenodd" d="M100.345 97.2872C98.3483 96.1346 95.3231 96.0091 93.5939 97.0075L85.3597 101.761C83.6304 102.76 83.8479 104.506 85.8442 105.659L115.756 122.929C117.755 124.082 120.778 124.207 122.508 123.209L130.742 118.455C132.471 117.456 132.255 115.711 130.257 114.557L100.345 97.2872Z" fill="#E1E3EE"/>
<path fill-rule="evenodd" clip-rule="evenodd" d="M90.4501 10.1358C91.2738 9.65645 92.3493 9.69913 93.5255 10.3781L122.799 27.2793C125.388 28.7739 127.49 32.79 127.49 36.2421V114.763C127.49 116.46 126.982 117.707 126.158 118.358L126.167 118.383L120.937 121.402L118.499 114.771L94.4397 100.88C91.8507 99.3855 89.7488 95.3694 89.7488 91.9174L88.8346 25.999L85.2202 13.1552L90.4501 10.1358Z" fill="#3BB273"/>
<mask id="mask0_48_3072" style="mask-type:luminance" maskUnits="userSpaceOnUse" x="85" y="9" width="43" height="113">
<path d="M90.4501 10.1358C91.2738 9.65645 92.3493 9.69913 93.5255 10.3781L122.799 27.2793C125.388 28.7739 127.49 32.79 127.49 36.2421V114.763C127.49 116.46 126.982 117.707 126.158 118.358L126.167 118.383L120.937 121.402L118.499 114.771L94.4397 100.88C91.8507 99.3855 89.7488 95.3694 89.7488 91.9174L88.8346 25.999L85.2202 13.1552L90.4501 10.1358Z" fill="white"/>
</mask>
<g mask="url(#mask0_48_3072)">
<path d="M129.252 34.4336L120.144 39.6918V122.142L129.252 116.884V34.4336Z" fill="#34A853"/>
</g>
<path fill-rule="evenodd" clip-rule="evenodd" d="M139.832 49.4097C141.326 46.8208 140.439 43.5059 137.849 42.0106L108.576 25.1098C105.987 23.6151 102.672 24.5035 101.177 27.0924L67.1764 85.9831C65.6817 88.5721 66.5701 91.8875 69.1591 93.3823L98.4321 110.283C101.022 111.778 104.336 110.889 105.831 108.3L139.832 49.4097Z" fill="#10243E"/>
<path fill-rule="evenodd" clip-rule="evenodd" d="M120.144 39.4906C120.144 36.4161 118.273 32.8394 115.966 31.5076L89.893 16.4545C87.587 15.1231 85.7148 16.5385 85.7148 19.6131V95.2371C85.7148 98.3117 87.587 101.889 89.893 103.22L115.966 118.273C118.273 119.605 120.144 118.189 120.144 115.115V39.4906Z" fill="#E1E3EE"/>
<mask id="mask1_48_3072" style="mask-type:luminance" maskUnits="userSpaceOnUse" x="85" y="15" width="36" height="104">
<path d="M120.144 39.4906C120.144 36.4161 118.273 32.8394 115.966 31.5076L89.893 16.4545C87.587 15.1231 85.7148 16.5385 85.7148 19.6131V95.2371C85.7148 98.3117 87.587 101.889 89.893 103.22L115.966 118.273C118.273 119.605 120.144 118.189 120.144 115.115V39.4906Z" fill="white"/>
</mask>
<g mask="url(#mask1_48_3072)">
<path d="M120.144 32.0925L85.7144 12.2147V32.9924L120.144 52.8703V32.0925Z" fill="#F2F3F7"/>
</g>
<path fill-rule="evenodd" clip-rule="evenodd" d="M118.249 57.8104C118.249 57.1578 117.852 56.3985 117.362 56.1158L89.3117 39.9206C88.8221 39.638 88.4248 39.9385 88.4248 40.5911V47.3955C88.4248 48.0481 88.8221 48.8073 89.3117 49.09L117.362 65.2851C117.852 65.5678 118.249 65.2674 118.249 64.6148V57.8104Z" fill="#F2F3F7"/>
<path fill-rule="evenodd" clip-rule="evenodd" d="M116.098 59.97C116.098 58.5222 115.217 56.8379 114.131 56.2109L92.5421 43.7467C91.4563 43.1198 90.5747 43.7862 90.5747 45.234C90.5747 46.6817 91.4563 48.3661 92.5421 48.993L114.131 61.4572C115.217 62.0841 116.098 61.4177 116.098 59.97Z" fill="#E1E3EE"/>
<path fill-rule="evenodd" clip-rule="evenodd" d="M103.337 52.6022C103.337 51.4599 102.642 50.1309 101.785 49.6362L92.7066 44.395C91.8498 43.9003 91.1543 44.4261 91.1543 45.5685C91.1543 46.7107 91.8498 48.0397 92.7066 48.5344L101.785 53.7757C102.642 54.2704 103.337 53.7445 103.337 52.6022Z" fill="#3BB273"/>
<path fill-rule="evenodd" clip-rule="evenodd" d="M118.249 108.129C118.249 107.476 117.852 106.717 117.362 106.435L89.3117 90.2394C88.8221 89.9567 88.4248 90.2572 88.4248 90.9098V97.7142C88.4248 98.3668 88.8221 99.126 89.3117 99.4087L117.362 115.604C117.852 115.887 118.249 115.586 118.249 114.934V108.129Z" fill="#F2F3F7"/>
<path d="M76.8496 90.3312C78.1422 91.0774 79.714 90.775 80.3603 89.6555C81.0066 88.5361 80.4827 87.0237 79.1901 86.2774C77.8975 85.5311 76.3257 85.8336 75.6794 86.953C75.0331 88.0724 75.557 89.5849 76.8496 90.3312Z" fill="#34A853"/>
<path d="M83.749 94.3147C85.0416 95.061 86.6134 94.7585 87.2597 93.6391C87.906 92.5197 87.3821 91.0072 86.0895 90.2609C84.7969 89.5146 83.2251 89.8171 82.5788 90.9365C81.9325 92.056 82.4564 93.5684 83.749 94.3147Z" fill="#34A853"/>
<path d="M90.6489 98.2983C91.9415 99.0446 93.5133 98.7421 94.1596 97.6227C94.8059 96.5033 94.282 94.9909 92.9894 94.2446C91.6968 93.4983 90.125 93.8008 89.4787 94.9202C88.8324 96.0396 89.3564 97.552 90.6489 98.2983Z" fill="#34A853"/>
<path d="M97.5489 102.282C98.8415 103.028 100.413 102.726 101.06 101.606C101.706 100.487 101.182 98.9744 99.8893 98.2282C98.5967 97.4819 97.0249 97.7844 96.3786 98.9038C95.7323 100.023 96.2563 101.536 97.5489 102.282Z" fill="#34A853"/>
<path fill-rule="evenodd" clip-rule="evenodd" d="M118.249 69.8345C118.249 69.1554 117.836 68.3654 117.327 68.0715L89.3475 51.9176C88.8384 51.6237 88.4248 51.9362 88.4248 52.6152V67.2353C88.4248 67.9143 88.8384 68.7044 89.3475 68.9983L117.327 85.1522C117.836 85.4461 118.249 85.1336 118.249 84.4545V69.8345Z" fill="#F2F3F7"/>
<path fill-rule="evenodd" clip-rule="evenodd" d="M118.249 88.946C118.249 88.2669 117.836 87.4769 117.327 87.1829L89.3475 71.029C88.8384 70.7351 88.4248 71.0476 88.4248 71.7267V86.3467C88.4248 87.0258 88.8384 87.8158 89.3475 88.1097L117.327 104.264C117.836 104.558 118.249 104.245 118.249 103.566V88.946Z" fill="#F2F3F7"/>
<path fill-rule="evenodd" clip-rule="evenodd" d="M107.975 31.1131C107.975 30.1038 107.36 28.9296 106.603 28.4923L99.2577 24.2515C98.5007 23.8145 97.8862 24.279 97.8862 25.2883C97.8862 26.2974 98.5007 27.4716 99.2577 27.9087L106.603 32.1495C107.36 32.5868 107.975 32.1222 107.975 31.1131Z" fill="#10243E"/>
<path fill-rule="evenodd" clip-rule="evenodd" d="M111.79 41.4971C111.79 40.4878 111.175 39.3135 110.417 38.8755L95.4422 30.2301C94.6853 29.7931 94.0708 30.2576 94.0708 31.2669C94.0708 32.276 94.6853 33.4502 95.4422 33.8872L110.417 42.5327C111.175 42.9706 111.79 42.5062 111.79 41.4971Z" fill="#34A853"/>
<path fill-rule="evenodd" clip-rule="evenodd" d="M59.2555 116.514C64.5713 113.11 68.9876 112.992 74.3711 117.026C78.4939 120.116 86.1558 117.48 86.7323 120.64C88.4892 130.26 74.8407 125.085 69.1075 121.775C63.3742 118.465 54.4188 119.611 59.2555 116.514Z" fill="#E1E3EE"/>
<path fill-rule="evenodd" clip-rule="evenodd" d="M79.3809 117.119C79.3809 117.119 85.2365 116.85 87.6503 116.115C90.0641 115.38 90.8645 117.942 87.8985 119.922C84.9325 121.903 81.1744 123.084 80.1695 122.059C79.1646 121.033 79.3809 117.119 79.3809 117.119Z" fill="#10243E"/>
<path fill-rule="evenodd" clip-rule="evenodd" d="M80.8144 85.4496C80.8144 85.4496 85.4736 108.354 85.8252 116.926C85.8252 116.926 81.9947 121.708 75.692 118.83C75.692 118.83 73.391 93.8917 70.8335 86.9639C70.8335 86.9639 74.1147 83.4439 80.8144 85.4496Z" fill="#34A853"/>
<mask id="mask2_48_3072" style="mask-type:luminance" maskUnits="userSpaceOnUse" x="70" y="84" width="16" height="36">
<path d="M80.8144 85.4496C80.8144 85.4496 85.4736 108.354 85.8252 116.926C85.8252 116.926 81.9947 121.708 75.692 118.83C75.692 118.83 73.391 93.8917 70.8335 86.9639C70.8335 86.9639 74.1147 83.4439 80.8144 85.4496Z" fill="white"/>
</mask>
<g mask="url(#mask2_48_3072)">
<path fill-rule="evenodd" clip-rule="evenodd" d="M82.0555 88.5486L82.4166 90.7588C82.4166 90.7588 77.5192 95.4055 71.45 92.9704L70.8335 89.0087L82.0555 88.5486Z" fill="#10243E"/>
</g>
<path fill-rule="evenodd" clip-rule="evenodd" d="M59.0127 113.201C59.0127 113.201 64.571 113.65 66.9397 113.233C69.3084 112.815 69.7457 115.387 66.7014 116.941C63.6572 118.496 59.9648 119.181 59.1438 118.069C58.3229 116.957 59.0127 113.201 59.0127 113.201Z" fill="#10243E"/>
<path fill-rule="evenodd" clip-rule="evenodd" d="M69.9176 82.4777C69.9176 82.4777 68.4044 104.651 66.6489 112.987C66.6489 112.987 62.6981 116.419 56.1887 113.766C56.1887 113.766 60.6102 88.7824 59.8766 81.4341C59.8766 81.4341 63.9374 78.852 69.9176 82.4777Z" fill="#34A853"/>
<mask id="mask3_48_3072" style="mask-type:luminance" maskUnits="userSpaceOnUse" x="56" y="80" width="14" height="35">
<path d="M69.9176 82.4777C69.9176 82.4777 68.4044 104.651 66.6489 112.987C66.6489 112.987 62.6981 116.419 56.1887 113.766C56.1887 113.766 60.6102 88.7824 59.8766 81.4341C59.8766 81.4341 63.9374 78.852 69.9176 82.4777Z" fill="white"/>
</mask>
<g mask="url(#mask3_48_3072)">
<path fill-rule="evenodd" clip-rule="evenodd" d="M70.3396 85.7893L70.8327 90.8252C70.8327 90.8252 65.6092 94.5469 58.9631 87.4028L59.3624 83.4133L70.3396 85.7893Z" fill="#10243E"/>
</g>
<path fill-rule="evenodd" clip-rule="evenodd" d="M83.2982 65.0243C85.5137 66.5462 85.5789 69.6491 85.5979 72.7529C85.6128 75.1901 83.542 79.6456 83.542 79.6456L85.5083 89.231C85.5083 89.231 68.1726 95.409 57.5386 82.0033L62.155 72.9941L66.1829 60.1813C66.1829 60.1813 80.4234 63.0499 83.2982 65.0243Z" fill="#3BB273"/>
<path fill-rule="evenodd" clip-rule="evenodd" d="M103.136 76.0102C103.136 76.0102 100.5 75.7779 99.7291 73.569C99.7291 73.569 100.391 70.7726 101.803 69.1977C103.215 67.6229 104.118 67.7459 105.811 67.7449C107.503 67.744 107.235 69.1479 106.143 69.2499C105.224 69.3356 104.523 69.5635 104.562 69.8131C104.562 69.8131 105.647 69.8556 106.588 70.899C107.529 71.9422 106.105 73.1873 106.105 73.1873C106.105 73.1873 106.813 74.5792 105.209 74.871C105.209 74.871 104.95 75.8768 103.136 76.0102Z" fill="#C7AD7A"/>
<path fill-rule="evenodd" clip-rule="evenodd" d="M84.2104 65.9293C84.2104 65.9293 88.3803 71.4987 90.4678 73.558C91.5079 74.584 96.9098 74.3256 100.122 72.0869C100.122 72.0869 103.259 72.5715 103.688 76.0928C103.96 78.3152 103.315 80.9801 99.2931 81.9647C99.2931 81.9647 94.3085 83.994 88.3316 81.413C84.1708 79.6163 81.2309 74.3208 79.1749 69.8062C79.1749 69.8062 80.5681 65.7223 84.2104 65.9293Z" fill="#3BB273"/>
<path fill-rule="evenodd" clip-rule="evenodd" d="M84.26 78.0353C84.4819 77.8061 83.2174 76.6226 82.4541 75.4025C81.8413 74.4229 80.794 72.5551 80.5366 71.6095C80.5366 71.6095 79.6121 74.7174 80.9927 76.7342C82.3528 78.721 83.9141 78.3926 84.26 78.0353Z" fill="#10243E"/>
<path d="M79.7975 64.1191C84.512 64.1191 88.3338 60.2973 88.3338 55.5828C88.3338 50.8683 84.512 47.0465 79.7975 47.0465C75.0831 47.0465 71.2612 50.8683 71.2612 55.5828C71.2612 60.2973 75.0831 64.1191 79.7975 64.1191Z" fill="#C7AD7A"/>
<path fill-rule="evenodd" clip-rule="evenodd" d="M87.1289 54.387C87.1289 54.387 88.719 53.5273 89.4793 54.2183C90.2397 54.9093 87.5576 56.9837 87.5576 56.9837L87.1289 54.387Z" fill="#C7AD7A"/>
<path fill-rule="evenodd" clip-rule="evenodd" d="M68.2775 48.1942C68.2775 48.1942 66.4293 49.0785 65.7067 51.685C64.9842 54.2915 64.1466 56.6459 61.911 56.8871C59.6753 57.1284 57.4333 60.4648 58.484 62.8836C58.484 62.8836 54.422 63.147 54.7454 68.1995C55.0688 73.2517 59.5697 74.0808 61.9681 73.1045C61.9681 73.1045 64.1441 77.9239 68.918 75.4053C68.918 75.4053 75.1389 77.7433 76.6753 73.09C76.6753 73.09 82.88 71.9037 80.7191 66.8096C80.7191 66.8096 83.9969 64.86 82.2437 61.5281C80.4906 58.1962 81.1055 56.6242 81.1055 56.6242C81.1055 56.6242 83.1298 55.3081 82.7798 52.6546C82.7798 52.6546 88.5637 50.1062 87.0815 45.8851C85.5991 41.664 80.4172 40.4518 78.4072 44.5606C77.6402 42.3293 70.2733 41.7009 68.2775 48.1942Z" fill="#10243E"/>
<path fill-rule="evenodd" clip-rule="evenodd" d="M129.224 39.9947C129.624 39.7701 130.147 39.7894 130.719 40.1061L140.906 45.7469C142.163 46.4427 143.183 48.3124 143.183 49.9194V60.4208C143.183 61.2951 142.882 61.9127 142.404 62.1821C142.398 62.185 142.394 62.1878 142.388 62.1906L139.441 63.8222L137.209 60.0243L130.719 56.4309C129.462 55.7351 128.442 53.8654 128.442 52.2584V45.1114L126.365 41.5777L129.224 39.9947Z" fill="#025629"/>
<path fill-rule="evenodd" clip-rule="evenodd" d="M129.682 45.6223C130.407 44.4171 129.999 42.886 128.768 42.2046L118.484 36.5101C117.254 35.8292 115.666 36.2549 114.941 37.4601L110.199 45.3362C109.474 46.5415 109.883 48.0728 111.113 48.7537L121.397 54.4481C122.628 55.1296 124.215 54.7036 124.94 53.4984L129.682 45.6223Z" fill="#3BB273"/>
<path d="M129.685 51.9665L127.914 50.9442V54.8606L129.685 55.883V51.9665Z" fill="white"/>
<path d="M132.196 51.7355L130.425 50.7131V56.31L132.196 57.3324V51.7355Z" fill="white"/>
<path d="M134.706 50.7139L132.935 49.6915V57.7593L134.706 58.7817V50.7139Z" fill="white"/>
<path d="M137.216 53.926L135.445 52.9036V59.2086L137.216 60.231V53.926Z" fill="white"/>
<path fill-rule="evenodd" clip-rule="evenodd" d="M129.224 60.4903C129.624 60.2657 130.147 60.285 130.719 60.6017L140.906 66.2425C142.163 66.9384 143.183 68.808 143.183 70.415V80.9164C143.183 81.7907 142.882 82.4083 142.404 82.6777C142.398 82.6806 142.394 82.6835 142.388 82.6862L139.441 84.3178L137.209 80.5199L130.719 76.9265C129.462 76.2307 128.442 74.361 128.442 72.754V65.607L126.365 62.0733L129.224 60.4903Z" fill="#025629"/>
<path fill-rule="evenodd" clip-rule="evenodd" d="M129.682 66.1179C130.407 64.9127 129.999 63.3816 128.768 62.7002L118.484 57.0058C117.254 56.3248 115.666 56.7506 114.941 57.9557L110.199 65.8318C109.474 67.0371 109.883 68.5684 111.113 69.2493L121.397 74.9437C122.628 75.6252 124.215 75.1992 124.94 73.994L129.682 66.1179Z" fill="#3BB273"/>
<path fill-rule="evenodd" clip-rule="evenodd" d="M129.609 69.0325L132.503 68.7736L135.398 72.3747L132.503 72.6328L129.609 69.0325ZM132.216 73.0425V76.9017L129.321 73.3006V69.4413L132.216 73.0425ZM135.685 73.1156V76.975L132.791 77.2338V73.3746L135.685 73.1156Z" fill="white"/>
<path fill-rule="evenodd" clip-rule="evenodd" d="M129.224 80.633C129.624 80.4084 130.147 80.4278 130.719 80.7445L140.906 86.3853C142.163 87.0811 143.183 88.9507 143.183 90.5577V101.059C143.183 101.933 142.882 102.551 142.404 102.82C142.398 102.823 142.394 102.826 142.388 102.829L139.441 104.461L137.209 100.663L130.719 97.0693C129.462 96.3735 128.442 94.5038 128.442 92.8968V85.7498L126.365 82.2161L129.224 80.633Z" fill="#025629"/>
<path fill-rule="evenodd" clip-rule="evenodd" d="M129.682 86.2607C130.407 85.0555 129.999 83.5244 128.768 82.8429L118.484 77.1485C117.254 76.4676 115.666 76.8933 114.941 78.0985L110.199 85.9746C109.474 87.1798 109.883 88.7111 111.113 89.3921L121.397 95.0865C122.628 95.768 124.215 95.342 124.94 94.1367L129.682 86.2607Z" fill="#3BB273"/>
<path fill-rule="evenodd" clip-rule="evenodd" d="M134.971 90.5473C134.971 90.5473 135.31 90.9267 135.041 91.8191C134.721 92.8848 134.422 94.4303 134.546 95.7233C134.676 97.0569 135.103 97.7929 135.103 97.7929C133.122 97.409 132.052 96.9927 130.122 95.7545C130.122 95.7545 129.539 94.9953 129.481 93.656C129.414 92.1081 130.134 90.3832 130.333 89.1486C130.455 88.4079 130.078 87.9156 130.078 87.9156C131.872 88.6801 133.375 89.2924 134.971 90.5473ZM130.91 93.4044C130.91 93.4044 131.572 93.7683 132.288 94.1139C132.377 94.1564 132.482 94.1159 132.521 94.0234C132.562 93.9309 132.524 93.8213 132.436 93.7787C131.728 93.4374 131.074 93.0779 131.074 93.0779C130.989 93.0305 130.882 93.0652 130.837 93.1553C130.792 93.2455 130.825 93.3571 130.91 93.4044ZM131.186 91.1374C131.186 91.1374 132.967 92.1153 133.855 92.3912C133.948 92.4201 134.045 92.3643 134.073 92.2668C134.1 92.1692 134.048 92.0664 133.955 92.0374C133.086 91.7681 131.349 90.8107 131.349 90.8107C131.263 90.7633 131.158 90.7982 131.112 90.8883C131.066 90.9783 131.099 91.0901 131.186 91.1374ZM130.961 92.1367C130.961 92.1367 132.742 93.1146 133.63 93.3905C133.724 93.4194 133.822 93.3636 133.848 93.2661C133.876 93.1685 133.824 93.0657 133.73 93.0367C132.862 92.7674 131.125 91.81 131.125 91.81C131.04 91.7626 130.933 91.7975 130.887 91.8876C130.841 91.9777 130.876 92.0894 130.961 92.1367Z" fill="white"/>
<path d="M97.7585 104.572L78.4902 115.697L94.2261 124.782L113.494 113.657L97.7585 104.572Z" fill="#3BB273"/>
<path d="M113.493 113.66L94.2261 124.783V138.734L113.493 127.61V113.66Z" fill="#025629"/>
<path d="M94.2262 124.78L78.4902 115.695V129.646L94.2262 138.731V124.78Z" fill="#025629"/>
<path d="M87.9957 121.183L84.7217 119.293V125.664L87.9957 127.554V121.183Z" fill="#E1E3EE"/>
<path d="M104.035 108.196L84.7676 119.32L87.995 121.184L107.263 110.059L104.035 108.196Z" fill="#F2F3F7"/>
<path d="M115.052 134.549C117.195 134.549 118.932 133.809 118.932 132.895C118.932 131.981 117.195 131.24 115.052 131.24C112.909 131.24 111.171 131.981 111.171 132.895C111.171 133.809 112.909 134.549 115.052 134.549Z" fill="#E1E3EE"/>
<path d="M120.286 135.917C123.177 135.917 125.521 134.995 125.521 133.858C125.521 132.721 123.177 131.799 120.286 131.799C117.395 131.799 115.051 132.721 115.051 133.858C115.051 134.995 117.395 135.917 120.286 135.917Z" fill="#E1E3EE"/>
<path fill-rule="evenodd" clip-rule="evenodd" d="M111.93 130.144C110.961 128.13 107.681 123.497 109.695 120.905C111.557 118.509 114.064 121.793 114.601 124.474C114.601 124.474 113.005 112.968 116.875 112.75C120.746 112.531 119.416 120.007 118.729 123.112C118.729 123.112 122.09 116.958 124.433 119.165C126.775 121.372 119.115 130.994 119.115 130.994C118.603 131.908 117.182 132.977 115.506 132.988C114.119 132.996 112.59 131.517 111.93 130.144Z" fill="#3BB273"/>
<path fill-rule="evenodd" clip-rule="evenodd" d="M117.062 115.52C117.069 115.411 117.163 115.328 117.272 115.335C117.381 115.342 117.464 115.436 117.457 115.544C117.457 115.544 116.656 128.177 115.441 133.092C115.415 133.197 115.308 133.262 115.202 133.236C115.096 133.21 115.031 133.103 115.058 132.997C116.268 128.102 117.062 115.52 117.062 115.52Z" fill="#F2F3F7"/>
<path fill-rule="evenodd" clip-rule="evenodd" d="M111.996 124.076C111.973 123.97 112.04 123.865 112.147 123.841C112.253 123.818 112.359 123.886 112.382 123.993C112.382 123.993 112.778 125.813 113.632 127.516C114.188 128.624 114.935 129.689 115.907 130.134C116.006 130.18 116.05 130.297 116.005 130.396C115.959 130.496 115.842 130.539 115.743 130.494C114.697 130.014 113.877 128.885 113.279 127.693C112.402 125.945 111.996 124.076 111.996 124.076Z" fill="#F2F3F7"/>
<path fill-rule="evenodd" clip-rule="evenodd" d="M116.327 127.858C116.226 127.898 116.111 127.849 116.071 127.747C116.03 127.646 116.08 127.531 116.181 127.491C116.181 127.491 120.398 125.824 122.014 122.475C122.061 122.377 122.179 122.336 122.278 122.383C122.376 122.43 122.417 122.549 122.37 122.647C120.693 126.12 116.327 127.858 116.327 127.858Z" fill="#F2F3F7"/>
<path fill-rule="evenodd" clip-rule="evenodd" d="M120.796 128.205C123.136 128.178 122.491 129.794 123.963 130.745C125.311 131.617 125.281 133.523 123.12 133.917C120.958 134.31 119.125 134.248 117.63 133.795C114.933 132.979 115.471 131.057 117.195 130.496C118.622 130.032 119.06 128.224 120.796 128.205Z" fill="#10243E"/>
<path d="M121.409 130.426C121.707 130.426 121.949 130.194 121.949 129.906C121.949 129.619 121.707 129.386 121.409 129.386C121.11 129.386 120.869 129.619 120.869 129.906C120.869 130.194 121.11 130.426 121.409 130.426Z" fill="#E1E3EE"/>
<path d="M122.221 131.044C122.371 131.044 122.493 130.933 122.493 130.795C122.493 130.658 122.371 130.547 122.221 130.547C122.071 130.547 121.949 130.658 121.949 130.795C121.949 130.933 122.071 131.044 122.221 131.044Z" fill="#E1E3EE"/>
<path d="M76.6954 35.8837C82.7641 29.815 82.7641 19.9757 76.6954 13.9071C70.6268 7.83837 60.7875 7.83837 54.7188 13.9071C48.6501 19.9757 48.6501 29.815 54.7188 35.8837C60.7875 41.9524 70.6268 41.9524 76.6954 35.8837Z" fill="#34A853"/>
<path fill-rule="evenodd" clip-rule="evenodd" d="M57.4114 26.6428C56.6263 25.8577 56.6263 24.5826 57.4114 23.7975C58.1967 23.0122 59.4716 23.0123 60.2568 23.7975L64.2398 27.7805L71.1568 20.8635C71.942 20.0783 73.217 20.0783 74.0022 20.8635C74.7873 21.6486 74.7873 22.9237 74.0022 23.7088L65.6625 32.0485C64.8767 32.8342 63.6028 32.8342 62.8171 32.0485L57.4114 26.6428Z" fill="#F2F3F7"/>
<path fill-rule="evenodd" clip-rule="evenodd" d="M80.3572 37.5387C80.5284 38.1062 80.3732 38.7225 79.9545 39.1412C79.5357 39.56 78.9194 39.7152 78.3519 39.544C74.1612 38.2802 66.8627 36.0789 66.8627 36.0789L76.8937 26.048C76.8937 26.048 79.0934 33.348 80.3572 37.5387Z" fill="#34A853"/>
</svg>
