<svg width="25" height="9" viewBox="0 0 25 9" fill="none" xmlns="http://www.w3.org/2000/svg">
<path d="M23.3451 0.765442H21.7777C21.2876 0.765442 20.9189 0.901772 20.7102 1.3838L17.7017 8.24412H19.8367C19.8367 8.24412 20.191 7.32389 20.2638 7.12913H22.8647C22.9278 7.38719 23.1122 8.24412 23.1122 8.24412H24.9998L23.3451 0.765442ZM20.8461 5.59542C21.0111 5.16695 21.6419 3.49691 21.6419 3.49691C21.6419 3.49691 21.8166 3.05871 21.9185 2.79092L22.0543 3.43361C22.0543 3.43361 22.4474 5.21564 22.525 5.59542H20.8461Z" fill="#1A2ADF"/>
<path d="M14.9943 2.84448C14.9894 3.19017 15.431 3.42388 16.1395 3.76958C17.3089 4.30516 17.8524 4.94786 17.8379 5.80479C17.8281 7.35798 16.4403 8.36098 14.3101 8.36098C13.3978 8.35124 12.5244 8.16622 12.0488 7.96172L12.3351 6.28681L12.5923 6.40367C13.2571 6.6812 13.6938 6.79805 14.5042 6.79805C15.0865 6.79805 15.7125 6.56921 15.7222 6.06771C15.727 5.73662 15.4553 5.50291 14.6692 5.13774C13.8928 4.78231 12.8738 4.18344 12.8883 3.11227C12.898 1.66133 14.3149 0.638855 16.319 0.638855C17.1051 0.638855 17.7408 0.804398 18.1387 0.955335L17.8621 2.57182L17.6777 2.48905C17.2992 2.33811 16.8188 2.19691 16.154 2.20178C15.3631 2.19691 14.9943 2.53287 14.9943 2.84448Z" fill="#1A2ADF"/>
<path d="M12.039 0.770325L10.7725 8.24413H8.74414L8.99161 6.79319L9.39437 4.40741L10.0058 0.775194L12.039 0.770325Z" fill="#1A2ADF"/>
<path d="M4.75059 4.6216C4.07124 2.89313 2.45051 1.4568 0 0.86279L0.0242639 0.711853H3.17353C3.60055 0.731329 3.94508 0.86279 4.06154 1.32047L4.75059 4.6216Z" fill="#1A2ADF"/>
<path d="M9.1857 0.78009L5.98791 8.23929H3.84312L2.02344 2.00706C3.32875 2.84939 4.43998 4.18347 4.83303 5.10857L5.04654 5.88273L7.03605 0.78009H9.1857Z" fill="#1A2ADF"/>
</svg>
