<svg width="16" height="11" viewBox="0 0 16 11" fill="none" xmlns="http://www.w3.org/2000/svg">
<path d="M15.3125 2.6875C14.3844 2.6875 13.625 1.9281 13.625 1C13.625 0.690632 13.3719 0.4375 13.0625 0.4375H2.9375C2.62813 0.4375 2.375 0.690632 2.375 1C2.375 1.9281 1.61564 2.6875 0.6875 2.6875C0.378132 2.6875 0.125 2.94063 0.125 3.25V7.75C0.125 8.05937 0.378132 8.3125 0.6875 8.3125C1.61564 8.3125 2.375 9.07186 2.375 10C2.375 10.3094 2.62813 10.5625 2.9375 10.5625H13.0625C13.3719 10.5625 13.625 10.3094 13.625 10C13.625 9.07186 14.3844 8.3125 15.3125 8.3125C15.6219 8.3125 15.875 8.05937 15.875 7.75V3.25C15.875 2.94063 15.6219 2.6875 15.3125 2.6875ZM4.625 3.76186C4.625 3.35125 4.78811 2.96312 5.09188 2.67624C5.69376 2.09125 6.68373 2.09688 7.29124 2.67624C7.58939 2.96312 7.75813 3.35125 7.75813 3.76186C7.75813 4.1781 7.58939 4.5606 7.29124 4.85311C6.98751 5.13999 6.58812 5.28625 6.18877 5.28625C5.78938 5.28625 5.39562 5.13999 5.09188 4.84748C4.78811 4.5606 4.625 4.1781 4.625 3.76186ZM6.34062 7.65435C6.19436 7.65435 6.04814 7.59811 5.93563 7.47998C5.72188 7.26063 5.72751 6.90062 5.95249 6.68687L9.25436 3.51999C9.47375 3.30061 9.83376 3.31187 10.0475 3.53125C10.2613 3.75623 10.2556 4.11624 10.0306 4.32999L6.73438 7.49687C6.62187 7.60374 6.48124 7.65435 6.34062 7.65435ZM10.9081 8.32373C10.6044 8.61624 10.205 8.76249 9.80564 8.76249C9.41188 8.76249 9.01249 8.61624 8.70876 8.32373C8.41061 8.03688 8.24187 7.65435 8.24187 7.23811C8.24187 6.82749 8.41061 6.43937 8.70876 6.15248C9.31627 5.5675 10.3006 5.5675 10.9081 6.15248C11.2063 6.43937 11.375 6.82749 11.375 7.23811C11.375 7.64875 11.2063 8.03688 10.9081 8.32373Z" fill="#787878"/>
</svg>
